<?xml version="1.0" encoding="UTF-8" standalone="no"?>
<svg width="121px" height="24px" viewBox="0 0 121 24" version="1.1" xmlns="http://www.w3.org/2000/svg" xmlns:xlink="http://www.w3.org/1999/xlink">
    <!-- Generator: Sketch 39.1 (31720) - http://www.bohemiancoding.com/sketch -->
    <title>Logo</title>
    <desc>Created with Sketch.</desc>
    <defs></defs>
    <g id="Tablet" stroke="none" stroke-width="1" fill="none" fill-rule="evenodd">
        <g id="Job-Site---Choose-Apply-Option---Tablet" transform="translate(-399.000000, -1116.000000)">
            <g id="Powered-By" transform="translate(322.000000, 1116.000000)">
                <g id="Logo" transform="translate(77.757085, 0.000000)">
                    <path d="M14.5694045,23.7220253 C13.4389522,23.156431 11.6068664,23.156061 10.4756746,23.7220253 L10.4086335,23.7555676 C9.27818118,24.3211619 7.89080336,23.871896 7.30898881,22.7504667 L7.27450705,22.6840041 C6.69307287,21.5633079 5.21110227,20.4883111 3.96260998,20.2826311 L3.88861697,20.2704413 C2.64094091,20.0648959 1.7831351,18.8875994 1.97293122,17.6390528 L1.98417965,17.5650566 C2.17385168,16.3173263 1.60805866,14.5783149 0.719147539,13.6795535 L0.666465428,13.6262876 C-0.221864548,12.7281137 -0.22244569,11.2724738 0.666465428,10.3737124 L0.719147539,10.3204465 C1.60747751,9.42227273 2.17397577,7.68348999 1.98417965,6.43494343 L1.97293122,6.3609472 C1.78325918,5.1132169 2.64012469,3.93523859 3.88861697,3.72955866 L3.96260998,3.71736885 C5.21028605,3.51182338 6.6926925,2.43742523 7.27450705,1.31599586 L7.30898881,1.24953335 C7.89042299,0.128837135 9.27744164,-0.321531914 10.4086335,0.244432362 L10.4756746,0.277974741 C11.6061269,0.843569008 13.4382126,0.843939017 14.5694045,0.277974741 L14.6364456,0.244432362 C15.7668979,-0.321161904 17.1542757,0.128103981 17.7360902,1.24953335 L17.770572,1.31599586 C18.3520062,2.43669208 19.8339768,3.51168892 21.0824691,3.71736885 L21.1564621,3.72955866 C22.4041381,3.93510412 23.261944,5.11240064 23.0721478,6.3609472 L23.0608994,6.43494343 C22.8712274,7.68267373 23.4370204,9.42168514 24.3259315,10.3204465 L24.3786136,10.3737124 C25.2669436,11.2718863 25.2675247,12.7275262 24.3786136,13.6262876 L24.3259315,13.6795535 C23.4376015,14.5777273 22.8711033,16.31651 23.0608994,17.5650566 L23.0721478,17.6390528 C23.2618199,18.8867831 22.4049544,20.0647614 21.1564621,20.2704413 L21.0824691,20.2826311 C19.834793,20.4881766 18.3523866,21.5625748 17.770572,22.6840041 L17.7360902,22.7504667 C17.1546561,23.8711629 15.7676374,24.3215319 14.6364456,23.7555676 L14.5694045,23.7220253 L14.5694045,23.7220253 Z M8.3046021,7.67136249 L8.3046021,17.4607713 C8.32609246,17.7715329 8.64714841,18.0576865 9.03128689,18.0576865 L10.8479989,18.0576865 L13.633624,18.0576865 L13.633624,18.0576865 C13.6535701,18.0554976 13.7331181,18.0576865 13.7547381,18.0576865 C15.921395,18.0576865 17.6303903,16.542399 17.6303903,14.7149615 C17.6303903,13.2958543 16.7024658,12.1106744 15.3292218,11.6110026 C16.4307528,11.0859705 17.1532468,10.0987313 17.1459338,8.98457587 C17.1532468,7.39744357 15.7851036,6.11634322 13.9969664,6 L13.9969664,6 L13.9969664,6 L10.8479989,6 L8.78905863,6 C8.82064483,6.00014893 8.81369988,6 8.78905863,6 L7.69903143,6 C7.40438062,6 7.2145749,6.16822752 7.2145749,6.3581491 L7.2145749,7.31321338 C7.2145749,7.52454044 7.40503479,7.69306801 7.69903143,7.67136249 L8.3046021,7.67136249 L8.3046021,7.67136249 L8.3046021,7.67136249 L8.3046021,7.67136249 L8.3046021,7.67136249 L8.3046021,7.67136249 Z M13.4863733,15.981491 C14.5873905,15.9161419 15.4241994,15.1396308 15.4241994,14.1907455 C15.4241994,13.2418602 14.5873905,12.4653492 13.4863733,12.4 L13.4863733,12.4 L10.8218623,12.4 L10.8218623,15.981491 L13.4863733,15.981491 L13.4863733,15.981491 L13.4863733,15.981491 L13.4863733,15.981491 L13.4863733,15.981491 L13.4863733,15.981491 L13.4863733,15.981491 L13.4863733,15.981491 Z M13.244145,10.8233419 C14.1910192,10.7645277 14.9397429,10.0656678 14.9397429,9.15197945 C14.9397429,8.35767417 14.1910192,7.65881424 13.244145,7.6 L13.244145,7.6 L10.8218623,7.6 L10.8218623,10.8233419 L13.244145,10.8233419 L13.244145,10.8233419 L13.244145,10.8233419 L13.244145,10.8233419 L13.244145,10.8233419 L13.244145,10.8233419 L13.244145,10.8233419 L13.244145,10.8233419 Z" id="B" fill="#1AB8FF"></path>
                    <path d="M33.2672065,17.7879234 L39.2383993,17.7879234 C41.4532335,17.7879234 42.6758219,16.4270987 42.6758219,14.6067747 C42.6758219,13.1575847 41.6481389,11.9027982 40.3901131,11.7083947 C41.4886708,11.4786451 42.4454792,10.4889543 42.4454792,9.00441826 C42.4454792,7.34315169 41.2406094,6 39.0789313,6 L33.2672065,6 L33.2672065,17.7879234 Z M35.3402912,10.8777614 L35.3402912,7.82032401 L38.6536831,7.82032401 C39.7168035,7.82032401 40.3192384,8.4742268 40.3192384,9.35787923 C40.3192384,10.2415317 39.7168035,10.8777614 38.6536831,10.8777614 L35.3402912,10.8777614 Z M35.3402912,15.9675994 L35.3402912,12.6980854 L38.7422765,12.6980854 C39.9294276,12.6980854 40.5495812,13.4403535 40.5495812,14.3240059 C40.5495812,15.3490427 39.8762716,15.9675994 38.7422765,15.9675994 L35.3402912,15.9675994 Z M44.1641905,13.5110457 C44.1641905,16.2150221 46.0778072,18 48.6470148,18 C50.0113526,18 51.2693784,17.5758468 52.1198747,16.7628866 L51.2693784,15.5434462 C50.6669435,16.1443299 49.6746978,16.4801178 48.8419202,16.4801178 C47.2295209,16.4801178 46.2549939,15.4197349 46.1132445,14.1296024 L52.7223096,14.1296024 L52.7223096,13.6877761 C52.7223096,11.0014728 51.074473,9.03976436 48.5052654,9.03976436 C45.9714951,9.03976436 44.1641905,11.0368189 44.1641905,13.5110457 L44.1641905,13.5110457 Z M48.5052654,10.5596465 C50.1885394,10.5596465 50.8795676,11.814433 50.915005,12.8217968 L46.0955259,12.8217968 C46.1841192,11.7790869 46.9105848,10.5596465 48.5052654,10.5596465 L48.5052654,10.5596465 Z M57.1342593,18 C58.0024742,18 58.5517531,17.7702504 58.8884079,17.4521355 L58.4454411,16.0559647 C58.3036917,16.2150221 57.9670369,16.3564065 57.6126634,16.3564065 C57.0811032,16.3564065 56.7976045,15.9322533 56.7976045,15.3490427 L56.7976045,10.8777614 L58.5340344,10.8777614 L58.5340344,9.25184094 L56.7976045,9.25184094 L56.7976045,6.91899853 L54.9371438,6.91899853 L54.9371438,9.25184094 L53.5196499,9.25184094 L53.5196499,10.8777614 L54.9371438,10.8777614 L54.9371438,15.808542 C54.9371438,17.2223859 55.6990467,18 57.1342593,18 L57.1342593,18 Z M62.786516,18 C63.654731,18 64.2040099,17.7702504 64.5406646,17.4521355 L64.0976978,16.0559647 C63.9559484,16.2150221 63.6192936,16.3564065 63.2649202,16.3564065 C62.73336,16.3564065 62.4498612,15.9322533 62.4498612,15.3490427 L62.4498612,10.8777614 L64.1862912,10.8777614 L64.1862912,9.25184094 L62.4498612,9.25184094 L62.4498612,6.91899853 L60.5894005,6.91899853 L60.5894005,9.25184094 L59.1719067,9.25184094 L59.1719067,10.8777614 L60.5894005,10.8777614 L60.5894005,15.808542 C60.5894005,17.2223859 61.3513035,18 62.786516,18 L62.786516,18 Z M65.3380049,13.5110457 C65.3380049,16.2150221 67.2516216,18 69.8208293,18 C71.1851671,18 72.4431929,17.5758468 73.2936892,16.7628866 L72.4431929,15.5434462 C71.840758,16.1443299 70.8485123,16.4801178 70.0157347,16.4801178 C68.4033354,16.4801178 67.4288084,15.4197349 67.287059,14.1296024 L73.8961241,14.1296024 L73.8961241,13.6877761 C73.8961241,11.0014728 72.2482875,9.03976436 69.6790799,9.03976436 C67.1453096,9.03976436 65.3380049,11.0368189 65.3380049,13.5110457 L65.3380049,13.5110457 Z M69.6790799,10.5596465 C71.3623538,10.5596465 72.0533821,11.814433 72.0888194,12.8217968 L67.2693403,12.8217968 C67.3579337,11.7790869 68.0843993,10.5596465 69.6790799,10.5596465 L69.6790799,10.5596465 Z M75.7388661,17.7879234 L77.5993268,17.7879234 L77.5993268,11.9734904 C77.9714189,11.3726068 79.0168206,10.8424153 79.7964423,10.8424153 C80.026785,10.8424153 80.2216904,10.8600884 80.3811585,10.8954345 L80.3811585,9.05743741 C79.2648821,9.05743741 78.237199,9.69366716 77.5993268,10.5066274 L77.5993268,9.25184094 L75.7388661,9.25184094 L75.7388661,17.7879234 Z M84.4564533,18 C85.3246683,18 85.8739472,17.7702504 86.2106019,17.4521355 L85.7676351,16.0559647 C85.6258857,16.2150221 85.2892309,16.3564065 84.9348575,16.3564065 C84.4032973,16.3564065 84.1197985,15.9322533 84.1197985,15.3490427 L84.1197985,10.8777614 L85.8562285,10.8777614 L85.8562285,9.25184094 L84.1197985,9.25184094 L84.1197985,6.91899853 L82.2593378,6.91899853 L82.2593378,9.25184094 L80.841844,9.25184094 L80.841844,10.8777614 L82.2593378,10.8777614 L82.2593378,15.808542 C82.2593378,17.2223859 83.0212408,18 84.4564533,18 L84.4564533,18 Z M87.0079422,13.5110457 C87.0079422,16.2150221 88.9215589,18 91.4907666,18 C92.8551044,18 94.1131302,17.5758468 94.9636265,16.7628866 L94.1131302,15.5434462 C93.5106953,16.1443299 92.5184496,16.4801178 91.685672,16.4801178 C90.0732727,16.4801178 89.0987457,15.4197349 88.9569963,14.1296024 L95.5660614,14.1296024 L95.5660614,13.6877761 C95.5660614,11.0014728 93.9182248,9.03976436 91.3490172,9.03976436 C88.8152469,9.03976436 87.0079422,11.0368189 87.0079422,13.5110457 L87.0079422,13.5110457 Z M91.3490172,10.5596465 C93.0322911,10.5596465 93.7233194,11.814433 93.7587567,12.8217968 L88.9392776,12.8217968 C89.027871,11.7790869 89.7543366,10.5596465 91.3490172,10.5596465 L91.3490172,10.5596465 Z M102.635812,17.7879234 L104.496273,17.7879234 L104.496273,12.1325479 C104.496273,9.83505155 102.830717,9.03976436 100.934819,9.03976436 C99.5704815,9.03976436 98.3301744,9.48159057 97.3379287,10.4182622 L98.0998317,11.7083947 C98.8440159,10.9837997 99.6767936,10.6303387 100.633602,10.6303387 C101.820753,10.6303387 102.635812,11.2312224 102.635812,12.2209131 L102.635812,13.4933726 C102.015658,12.7687776 101.023413,12.3976436 99.871699,12.3976436 C98.4719238,12.3976436 96.8949619,13.2106038 96.8949619,15.1723122 C96.8949619,17.0633284 98.4719238,18 99.871699,18 C101.005694,18 101.99794,17.5935199 102.635812,16.8689249 L102.635812,17.7879234 Z M102.635812,15.8438881 C102.210564,16.4270987 101.413224,16.7275405 100.598165,16.7275405 C99.5527629,16.7275405 98.7731412,16.1266568 98.7731412,15.2076583 C98.7731412,14.2709867 99.5527629,13.6701031 100.598165,13.6701031 C101.413224,13.6701031 102.210564,13.9705449 102.635812,14.5537555 L102.635812,15.8438881 Z M117.395467,17.7879234 L119.255927,17.7879234 L119.255927,11.6200295 C119.255927,9.88807069 118.369994,9.03976436 116.793032,9.03976436 C115.517287,9.03976436 114.383292,9.83505155 113.887169,10.6126657 C113.603671,9.67599411 112.824049,9.03976436 111.548305,9.03976436 C110.254841,9.03976436 109.120846,9.88807069 108.766473,10.4182622 L108.766473,9.25184094 L106.906012,9.25184094 L106.906012,17.7879234 L108.766473,17.7879234 L108.766473,11.832106 C109.156284,11.2665685 109.918187,10.6833579 110.733246,10.6833579 C111.74321,10.6833579 112.150739,11.3019146 112.150739,12.2209131 L112.150739,17.7879234 L114.0112,17.7879234 L114.0112,11.814433 C114.383292,11.2665685 115.162914,10.6833579 115.995692,10.6833579 C116.987937,10.6833579 117.395467,11.3019146 117.395467,12.2209131 L117.395467,17.7879234 Z" id="Betterteam" fill="#2C2C2C"></path>
                </g>
            </g>
        </g>
    </g>
</svg>